<?xml version="1.0" encoding="UTF-8" standalone="no"?><!DOCTYPE svg PUBLIC "-//W3C//DTD SVG 1.1//EN" "http://www.w3.org/Graphics/SVG/1.1/DTD/svg11.dtd"><svg width="100%" height="100%" viewBox="0 0 164 164" version="1.1" xmlns="http://www.w3.org/2000/svg" xmlns:xlink="http://www.w3.org/1999/xlink" xml:space="preserve" xmlns:serif="http://www.serif.com/" style="fill-rule:evenodd;clip-rule:evenodd;"><rect x="0" y="0" width="164" height="164" style="fill:rgb(1,30,88);"/>
<g><g><clipPath id="_clip1"><path d="M68.1,25C52.5,30.5 39.5,42.1 32.4,57.1C31.1,59.6 29.8,62.5 29.1,65.2C28.3,68 27.8,71.2 27.3,74.2C26.7,77.5 25.8,98.9 29.2,99.6C29.7,99.7 29.9,99.5 30.3,99.2C31,98.7 36.5,90.3 37.9,88.6C40.3,85.6 48.8,77.8 49.3,77.5C50.5,76.5 53.8,66.7 55.2,64.3C57.3,60.7 60.1,57.5 63.2,54.7C74.8,44.5 87.5,45.5 101.9,46C106.7,46.2 111.5,46.3 116.1,45C117.3,44.6 119,44.1 120,43.3C120.4,43 125.3,38.3 127,35.3C128.6,32.7 130.6,28.7 130.3,25.5C130.2,24.6 130,23.9 129.3,23.4C127.1,21.8 118.1,22.6 115.1,22.6C113.9,22.6 106.4,22.5 105,22.5C92.6,22.2 80.1,21.2 68.1,25Z"/>
</clipPath><g clip-path="url(#_clip1)"><path id="arco-arancio" d="M68.1,25C52.5,30.5 39.5,42.1 32.4,57.1C31.1,59.6 29.8,62.5 29.1,65.2C28.3,68 27.8,71.2 27.3,74.2C26.7,77.5 25.8,98.9 29.2,99.6C29.7,99.7 29.9,99.5 30.3,99.2C31,98.7 36.5,90.3 37.9,88.6C40.3,85.6 48.8,77.8 49.3,77.5C50.5,76.5 53.8,66.7 55.2,64.3C57.3,60.7 60.1,57.5 63.2,54.7C74.8,44.5 87.5,45.5 101.9,46C106.7,46.2 111.5,46.3 116.1,45C117.3,44.6 119,44.1 120,43.3C120.4,43 125.3,38.3 127,35.3C128.6,32.7 130.6,28.7 130.3,25.5C130.2,24.6 130,23.9 129.3,23.4C127.1,21.8 118.1,22.6 115.1,22.6C113.9,22.6 106.4,22.5 105,22.5C92.6,22.2 80.1,21.2 68.1,25Z" style="fill:url(#_Linear2);fill-rule:nonzero;"/>
<path id="arco-arancio1" serif:id="arco-arancio" d="M68.1,25C52.5,30.5 39.5,42.1 32.4,57.1C31.1,59.6 29.8,62.5 29.1,65.2C28.3,68 27.8,71.2 27.3,74.2C26.7,77.5 25.8,98.9 29.2,99.6C29.7,99.7 29.9,99.5 30.3,99.2C31,98.7 36.5,90.3 37.9,88.6C40.3,85.6 44.6,79.7 47.9,77.9C48.3,77.6 48.8,77.8 49.3,77.5C50.5,76.5 53.8,66.7 55.2,64.3C57.3,60.7 60.1,57.5 63.2,54.7C74.8,44.5 87.5,45.5 101.9,46C106.7,46.2 111.5,46.3 116.1,45C117.3,44.6 125.3,38.3 127,35.3C128.6,32.7 130.6,28.7 130.3,25.5C130.2,24.6 130,23.9 129.3,23.4C127.1,21.8 118.1,22.6 115.1,22.6C113.9,22.6 106.4,22.5 105,22.5C92.6,22.2 80.1,21.2 68.1,25Z" style="fill:none;fill-rule:nonzero;stroke:url(#_Linear3);stroke-width:10.36px;"/>
</g></g><g><clipPath id="_clip4"><path d="M39.2,99.7C29.9,112.7 22.8,127.1 13.3,139.8C11.5,142.2 9.1,145.4 6.2,146.4C5.1,146.7 0.8,147.1 0.5,148.5C0.3,149.1 1.8,151.2 2.1,151.8C3.1,153.9 6.4,161.6 7.7,162.7C8.2,163.2 10,163.4 10.1,163.4C11.2,163.1 12.4,162.7 13.4,162.3C17.7,160.4 21.4,157.3 24.4,153.8C27.8,150 30.5,145.7 33.3,141.4C40.8,129.8 47.4,117.5 55.9,106.6C60.7,100.4 66.2,94.6 73.8,91.9C75.6,91.2 81.6,91 82,91.1C82.8,91.4 86.4,90.9 87.5,90.8C98.6,89.4 107.6,82.9 108.1,71C108.2,69.8 108.5,63.8 107.9,63C107.1,62.2 106.6,62.7 105.8,63.3C104.8,64.2 104,65.5 103,66.4C99.9,69.1 95.7,70.5 91.9,71.3C88.2,72.2 72.9,73.8 69.3,74.9C56.3,79.2 47.1,89 39.2,99.7Z"/>
</clipPath><g clip-path="url(#_clip4)"><path id="onda-ciano" d="M39.2,99.7C29.9,112.7 22.8,127.1 13.3,139.8C11.5,142.2 9.1,145.4 6.2,146.4C5.1,146.7 0.8,147.1 0.5,148.5C0.3,149.1 1.8,151.2 2.1,151.8C3.1,153.9 6.4,161.6 7.7,162.7C8.2,163.2 10,163.4 10.1,163.4C11.2,163.1 12.4,162.7 13.4,162.3C17.7,160.4 21.4,157.3 24.4,153.8C27.8,150 30.5,145.7 33.3,141.4C40.8,129.8 47.4,117.5 55.9,106.6C60.7,100.4 66.2,94.6 73.8,91.9C75.6,91.2 81.6,91 82,91.1C82.8,91.4 86.4,90.9 87.5,90.8C98.6,89.4 107.6,82.9 108.1,71C108.2,69.8 108.5,63.8 107.9,63C107.1,62.2 106.6,62.7 105.8,63.3C104.8,64.2 104,65.5 103,66.4C99.9,69.1 95.7,70.5 91.9,71.3C88.2,72.2 72.9,73.8 69.3,74.9C56.3,79.2 47.1,89 39.2,99.7Z" style="fill:url(#_Linear5);fill-rule:nonzero;"/>
<path id="onda-ciano1" serif:id="onda-ciano" d="M39.2,99.7C29.9,112.7 22.8,127.1 13.3,139.8C11.5,142.2 9.1,145.4 6.2,146.4C5.1,146.7 0.8,147.1 0.5,148.5C0.3,149.1 1.8,151.2 2.1,151.8C3.1,153.9 6.4,161.6 7.7,162.7C8.2,163.2 10,163.4 10.1,163.4C11.2,163.1 12.4,162.7 13.4,162.3C17.7,160.4 21.4,157.3 24.4,153.8C27.8,150 30.5,145.7 33.3,141.4C40.8,129.8 47.4,117.5 55.9,106.6C60.7,100.4 66.2,94.6 73.8,91.9C75.6,91.2 81.6,91 82,91.1C82.8,91.4 86.4,90.9 87.5,90.8C98.6,89.4 107.6,82.9 108.1,71C108.2,69.8 108.5,63.8 107.9,63C107.1,62.2 106.6,62.7 105.8,63.3C104.8,64.2 104,65.5 103,66.4C99.9,69.1 95.7,70.5 91.9,71.3C88.2,72.2 72.9,73.8 69.3,74.9C56.3,79.2 47.1,89 39.2,99.7Z" style="fill:none;fill-rule:nonzero;stroke:url(#_Linear6);stroke-width:10.36px;"/>
</g></g><g transform="matrix(1,0,0,1,-4,-3)"><clipPath id="_clip7"><path d="M142.5,83.4C145.7,80.2 162.9,61.5 163.6,59.3C164.4,56.8 163.8,40.6 163.8,37.3C163.8,36.7 164.1,34.5 163.3,34.2C162.6,34 161.5,35.7 161.1,36.1C159.1,38.3 157,40.3 155.2,42.6C154.1,43.9 149.4,48.9 148.2,50.2C142.6,56.6 137.3,63.2 131.4,69.4C128.9,71.9 126.4,74.6 123.4,76.5C120.9,78.1 116.6,78.5 114.7,80.7C113.8,81.7 113.6,83.2 113.1,84.4C111.7,87.2 109.3,90.1 106.9,92.2C104.7,94.1 102.1,95.4 99.4,96.7C98.9,96.9 97.3,97.6 97.5,98.4C97.8,99.2 100,98.9 100.6,98.9C103.9,98.9 107.1,99.2 110.3,99C112.2,98.8 129.7,93.3 131.2,92.4C135.5,90 139,86.8 142.5,83.4Z"/>
</clipPath><g clip-path="url(#_clip7)"><path id="diagonale-blu" d="M142.5,83.4C145.7,80.2 162.9,61.5 163.6,59.3C164.4,56.8 163.8,40.6 163.8,37.3C163.8,36.7 164.1,34.5 163.3,34.2C162.6,34 161.5,35.7 161.1,36.1C159.1,38.3 157,40.3 155.2,42.6C154.1,43.9 149.4,48.9 148.2,50.2C142.6,56.6 137.3,63.2 131.4,69.4C128.9,71.9 126.4,74.6 123.4,76.5C120.9,78.1 116.6,78.5 114.7,80.7C113.8,81.7 113.6,83.2 113.1,84.4C111.7,87.2 109.3,90.1 106.9,92.2C104.7,94.1 102.1,95.4 99.4,96.7C98.9,96.9 97.3,97.6 97.5,98.4C97.8,99.2 100,98.9 100.6,98.9C103.9,98.9 107.1,99.2 110.3,99C112.2,98.8 129.7,93.3 131.2,92.4C135.5,90 139,86.8 142.5,83.4Z" style="fill:url(#_Linear8);fill-rule:nonzero;"/>
<path id="diagonale-blu1" serif:id="diagonale-blu" d="M142.5,83.4C145.7,80.2 162.9,61.5 163.6,59.3C164.4,56.8 163.8,40.6 163.8,37.3C163.8,36.7 164.1,34.5 163.3,34.2C162.6,34 161.5,35.7 161.1,36.1C159.1,38.3 157,40.3 155.2,42.6C154.1,43.9 149.4,48.9 148.2,50.2C142.6,56.6 137.3,63.2 131.4,69.4C128.9,71.9 126.4,74.6 123.4,76.5C120.9,78.1 116.6,78.5 114.7,80.7C113.8,81.7 113.6,83.2 113.1,84.4C111.7,87.2 109.3,90.1 106.9,92.2C104.7,94.1 102.1,95.4 99.4,96.7C98.9,96.9 97.3,97.6 97.5,98.4C97.8,99.2 100,98.9 100.6,98.9C103.9,98.9 107.1,99.2 110.3,99C112.2,98.8 129.7,93.3 131.2,92.4C135.5,90 139,86.8 142.5,83.4Z" style="fill:none;fill-rule:nonzero;stroke:url(#_Linear9);stroke-width:10.36px;"/>
</g></g><g><clipPath id="_clip10"><path d="M89.7,121.1C85.4,121.2 80.2,121 76.2,119.4C74.5,118.7 68.8,115.9 68.4,115.7C66.9,114.8 64,111.9 62.2,112.4C60.2,113 56.1,120.3 54.9,122.2C53.7,124 49.9,128.8 50.1,130.9C50.3,132.9 53,133.7 54.4,134.8C57.2,136.9 60,137.9 63.2,139.4C64.5,140.1 65.7,140.9 67.1,141.5C76.7,145.3 88.1,145.9 98.2,144.1C103.1,143.2 107.9,141.6 112.4,139.4C114.1,138.6 119.7,135.4 120.1,135C122.2,133 130.1,127.9 130.5,125.1C130.7,123.1 128,120.6 126.8,119.4C124.2,116.9 121.1,114.8 117.6,114.1C116.7,113.9 114.2,113.3 113.8,113.2C110.5,112.8 101.9,118.2 98.3,119.4C95.5,120.4 92.7,120.8 89.7,121.1Z"/>
</clipPath><g clip-path="url(#_clip10)"><path id="sorriso-arancio" d="M89.7,121.1C85.4,121.2 80.2,121 76.2,119.4C74.5,118.7 68.8,115.9 68.4,115.7C66.9,114.8 64,111.9 62.2,112.4C60.2,113 56.1,120.3 54.9,122.2C53.7,124 49.9,128.8 50.1,130.9C50.3,132.9 53,133.7 54.4,134.8C57.2,136.9 60,137.9 63.2,139.4C64.5,140.1 65.7,140.9 67.1,141.5C76.7,145.3 88.1,145.9 98.2,144.1C103.1,143.2 107.9,141.6 112.4,139.4C114.1,138.6 119.7,135.4 120.1,135C122.2,133 130.1,127.9 130.5,125.1C130.7,123.1 128,120.6 126.8,119.4C124.2,116.9 121.1,114.8 117.6,114.1C116.7,113.9 114.2,113.3 113.8,113.2C110.5,112.8 101.9,118.2 98.3,119.4C95.5,120.4 92.7,120.8 89.7,121.1Z" style="fill:url(#_Linear11);fill-rule:nonzero;"/>
<path id="sorriso-arancio1" serif:id="sorriso-arancio" d="M89.7,121.1C85.4,121.2 80.2,121 76.2,119.4C74.5,118.7 68.8,115.9 68.4,115.7C66.9,114.8 64,111.9 62.2,112.4C60.2,113 56.1,120.3 54.9,122.2C53.7,124 49.9,128.8 50.1,130.9C50.3,132.9 53,133.7 54.4,134.8C57.2,136.9 60,137.9 63.2,139.4C64.5,140.1 65.7,140.9 67.1,141.5C76.7,145.3 88.1,145.9 98.2,144.1C103.1,143.2 107.9,141.6 112.4,139.4C114.1,138.6 119.7,135.4 120.1,135C122.2,133 130.1,127.9 130.5,125.1C130.7,123.1 128,120.6 126.8,119.4C124.2,116.9 121.1,114.8 117.6,114.1C116.7,113.9 114.2,113.3 113.8,113.2C110.5,112.8 101.9,118.2 98.3,119.4C95.5,120.4 92.7,120.8 89.7,121.1Z" style="fill:none;fill-rule:nonzero;stroke:url(#_Linear12);stroke-width:10.36px;"/>
</g></g></g><defs><linearGradient id="_Linear2" x1="0" y1="0" x2="1" y2="0" gradientUnits="userSpaceOnUse" gradientTransform="matrix(-79.6,36.8,-36.8,-79.6,112.8,24.9)"><stop offset="0" style="stop-color:rgb(254,182,57);stop-opacity:1"/>
<stop offset="0.25" style="stop-color:rgb(255,182,57);stop-opacity:1"/>
<stop offset="0.5" style="stop-color:rgb(255,174,48);stop-opacity:1"/>
<stop offset="1" style="stop-color:rgb(254,139,26);stop-opacity:1"/>
</linearGradient><linearGradient id="_Linear3" x1="0" y1="0" x2="1" y2="0" gradientUnits="userSpaceOnUse" gradientTransform="matrix(-79.6,36.8,-36.8,-79.6,112.8,24.9)"><stop offset="0" style="stop-color:rgb(249,227,152);stop-opacity:1"/>
<stop offset="0.25" style="stop-color:rgb(249,225,151);stop-opacity:1"/>
<stop offset="0.5" style="stop-color:rgb(249,217,133);stop-opacity:1"/>
<stop offset="1" style="stop-color:rgb(249,184,86);stop-opacity:1"/>
</linearGradient><linearGradient id="_Linear5" x1="0" y1="0" x2="1" y2="0" gradientUnits="userSpaceOnUse" gradientTransform="matrix(-85.7,87.1,-87.1,-85.7,88.8,69.5)"><stop offset="0" style="stop-color:rgb(25,200,239);stop-opacity:1"/>
<stop offset="0.25" style="stop-color:rgb(17,195,239);stop-opacity:1"/>
<stop offset="0.5" style="stop-color:rgb(8,157,234);stop-opacity:1"/>
<stop offset="0.75" style="stop-color:rgb(6,136,221);stop-opacity:1"/>
<stop offset="1" style="stop-color:rgb(24,130,201);stop-opacity:1"/>
</linearGradient><linearGradient id="_Linear6" x1="0" y1="0" x2="1" y2="0" gradientUnits="userSpaceOnUse" gradientTransform="matrix(-85.7,87.1,-87.1,-85.7,88.8,69.5)"><stop offset="0" style="stop-color:rgb(102,233,250);stop-opacity:1"/>
<stop offset="0.25" style="stop-color:rgb(81,229,249);stop-opacity:1"/>
<stop offset="0.5" style="stop-color:rgb(51,207,246);stop-opacity:1"/>
<stop offset="0.75" style="stop-color:rgb(39,192,243);stop-opacity:1"/>
<stop offset="1" style="stop-color:rgb(39,176,237);stop-opacity:1"/>
</linearGradient><linearGradient id="_Linear8" x1="0" y1="0" x2="1" y2="0" gradientUnits="userSpaceOnUse" gradientTransform="matrix(42.1,-40.2,40.2,42.1,119.2,91.6)"><stop offset="0" style="stop-color:rgb(4,118,219);stop-opacity:1"/>
<stop offset="0.25" style="stop-color:rgb(5,123,217);stop-opacity:1"/>
<stop offset="0.5" style="stop-color:rgb(5,141,231);stop-opacity:1"/>
<stop offset="0.75" style="stop-color:rgb(4,143,223);stop-opacity:1"/>
<stop offset="1" style="stop-color:rgb(6,151,226);stop-opacity:1"/>
</linearGradient><linearGradient id="_Linear9" x1="0" y1="0" x2="1" y2="0" gradientUnits="userSpaceOnUse" gradientTransform="matrix(42.1,-40.2,40.2,42.1,119.2,91.6)"><stop offset="0" style="stop-color:rgb(18,164,235);stop-opacity:1"/>
<stop offset="0.25" style="stop-color:rgb(24,180,241);stop-opacity:1"/>
<stop offset="0.5" style="stop-color:rgb(39,197,246);stop-opacity:1"/>
<stop offset="1" style="stop-color:rgb(36,205,248);stop-opacity:1"/>
</linearGradient><linearGradient id="_Linear11" x1="0" y1="0" x2="1" y2="0" gradientUnits="userSpaceOnUse" gradientTransform="matrix(-56.1,-0.9,0.9,-56.1,117.7,129.9)"><stop offset="0" style="stop-color:rgb(249,86,27);stop-opacity:1"/>
<stop offset="0.5" style="stop-color:rgb(251,77,21);stop-opacity:1"/>
<stop offset="1" style="stop-color:rgb(252,83,18);stop-opacity:1"/>
</linearGradient><linearGradient id="_Linear12" x1="0" y1="0" x2="1" y2="0" gradientUnits="userSpaceOnUse" gradientTransform="matrix(-56.1,-0.9,0.9,-56.1,117.7,129.9)"><stop offset="0" style="stop-color:rgb(247,144,62);stop-opacity:1"/>
<stop offset="0.25" style="stop-color:rgb(249,137,51);stop-opacity:1"/>
<stop offset="1" style="stop-color:rgb(250,126,48);stop-opacity:1"/>
</linearGradient></defs></svg>